<svg width="11" height="23" viewBox="0 0 11 23" fill="none" xmlns="http://www.w3.org/2000/svg">
<path d="M5.50002 0C2.46269 0 -2.45347e-07 2.28861 4.26082e-05 5.1112L0 19.1664C0 21.2842 1.84629 23 4.12525 23C6.00361 23 7.57185 21.8245 8.06965 20.2289C8.1795 20.116 8.24952 19.9696 8.2505 19.806L8.2505 5.75093C8.2505 4.33965 7.01963 3.19579 5.50101 3.19579C3.98239 3.19579 2.75151 4.33965 2.75151 5.75093L2.75147 17.2509C2.75147 17.6033 3.05967 17.8897 3.43883 17.8897C3.81804 17.8897 4.12624 17.6033 4.1262 17.2509L4.12624 5.75093C4.12624 5.04437 4.74165 4.47246 5.50101 4.47334C6.26131 4.47334 6.87672 5.04525 6.87578 5.75093L6.87573 19.1681C6.87573 20.5794 5.64486 21.7233 4.12624 21.7233C2.60762 21.7233 1.37674 20.5794 1.37674 19.1681L1.37477 5.1112C1.37477 2.99337 3.22106 1.27759 5.50002 1.27755C7.77894 1.27755 9.62523 2.99333 9.62527 5.1112L9.62527 17.8888C9.62527 18.2412 9.93347 18.5276 10.3126 18.5275C10.6918 18.5275 11 18.2411 11 17.8888V5.1112C11 2.28861 8.53735 0 5.50002 0Z" fill="#AA9385"/>
</svg>
